<svg xmlns="http://www.w3.org/2000/svg" width="375.7" height="58.2"><g class="words"><path d="M95.9 25.7c1.5 1.9 2.3 4.7 2.3 8.5v15.7h-9.4V34.6c0-1.6-.3-2.8-.8-3.5-.6-.7-1.4-1.1-2.6-1.1-1.4 0-2.6.5-3.4 1.4-.9 1-1.3 2.2-1.3 3.8v14.7h-9.4V11.7h9.4v15.1c2-2.6 4.8-3.9 8.3-3.9 3-.1 5.3.9 6.9 2.8zM108.7 48.7c-2.2-1.1-3.9-2.7-5-4.8-1.2-2.1-1.8-4.5-1.8-7.3s.6-5.2 1.8-7.3c1.2-2.1 2.9-3.7 5-4.8s4.7-1.7 7.7-1.7c2.9 0 5.4.6 7.6 1.7 2.2 1.1 3.8 2.7 5 4.8 1.2 2.1 1.8 4.5 1.8 7.3s-.6 5.2-1.8 7.3c-1.2 2.1-2.8 3.7-5 4.8-2.2 1.1-4.7 1.7-7.6 1.7-3-.1-5.5-.6-7.7-1.7zm12.8-12.1c0-2.3-.4-4-1.3-5.1s-2.1-1.6-3.8-1.6-3 .5-3.9 1.6-1.3 2.8-1.3 5.1.4 4 1.3 5.1c.9 1.1 2.2 1.6 3.9 1.6 3.4 0 5.1-2.2 5.1-6.7zM175 25.6c1.5 1.9 2.2 4.7 2.2 8.6v15.7h-9.4V34.5c0-1.6-.2-2.7-.7-3.4-.5-.7-1.3-1-2.4-1-1.3 0-2.3.5-3.1 1.5s-1.1 2.3-1.1 4.1V50h-9.4V34.5c0-1.6-.2-2.7-.7-3.4-.5-.7-1.3-1-2.3-1-1.3 0-2.3.5-3 1.5s-1.1 2.3-1.1 4.1V50h-9.4V31.1c0-2.8-.1-5.4-.4-7.6h8.8l.5 3.7c.8-1.4 1.9-2.5 3.3-3.3 1.4-.8 3.1-1.1 5-1.1 3.8 0 6.3 1.6 7.7 4.8.9-1.5 2.2-2.6 3.7-3.5s3.2-1.3 5-1.3c3.1 0 5.3 1 6.8 2.8zM206.5 37.7h-16.6c.2 2 .8 3.5 1.8 4.4s2.5 1.3 4.4 1.3c1.3 0 2.6-.2 3.9-.6 1.3-.4 2.5-1 3.6-1.8l2.4 6.2c-1.3 1-2.9 1.7-4.8 2.3-1.9.6-3.7.8-5.6.8-3 0-5.6-.6-7.8-1.7s-3.9-2.7-5.1-4.7c-1.2-2.1-1.8-4.5-1.8-7.3 0-2.7.6-5 1.7-7.1 1.1-2.1 2.7-3.7 4.7-4.9 2-1.2 4.3-1.8 6.8-1.8s4.7.6 6.5 1.7c1.9 1.1 3.3 2.7 4.3 4.7 1 2.1 1.5 4.5 1.5 7.2v1.3h.1zM190 33.3h8.4c-.3-2.7-1.7-4-4-4s-3.8 1.3-4.4 4zM208.5 47.2l2.4-6.4c1.4 1 3 1.7 4.8 2.3 1.8.5 3.6.8 5.3.8 1.1 0 1.9-.2 2.5-.5s.9-.7.9-1.3c0-.5-.2-.9-.6-1.2s-1.3-.6-2.5-.8l-4.3-1c-2.7-.6-4.6-1.4-5.8-2.6s-1.8-2.8-1.8-5c0-1.7.5-3.2 1.5-4.5s2.4-2.3 4.2-3.1c1.8-.7 3.8-1.1 6.2-1.1 1.9 0 3.8.3 5.6.8s3.5 1.3 5.1 2.3l-2.5 6.2c-1.4-.9-2.8-1.6-4.3-2.1s-2.8-.7-4.1-.7c-1 0-1.9.2-2.4.5-.6.3-.9.8-.9 1.4 0 .4.2.7.5.9.3.2 1 .5 2 .7l4.4 1c2.8.7 4.8 1.6 6 2.9s1.8 3 1.8 5.2c0 2.6-1 4.6-3.1 6.1s-4.9 2.2-8.5 2.2c-5.2.1-9.3-.9-12.4-3zM235.3 40.3h9.8V50h-9.8v-9.7zM251.8 46.7c-2.5-2.4-3.8-5.7-3.8-9.9 0-2.8.6-5.2 1.8-7.3 1.2-2.1 2.9-3.7 5.2-4.9 2.2-1.2 4.8-1.7 7.7-1.7 1.9 0 3.8.3 5.7.9 1.9.6 3.4 1.3 4.5 2.3l-2.4 6.5c-.9-.8-2-1.4-3.3-1.8-1.2-.4-2.4-.7-3.6-.7-1.9 0-3.4.6-4.5 1.7-1 1.1-1.6 2.8-1.6 4.9 0 2.2.5 3.9 1.6 5 1 1.1 2.5 1.7 4.5 1.7 1.1 0 2.3-.2 3.6-.7 1.2-.4 2.3-1.1 3.2-1.8l2.4 6.4c-1.1 1-2.7 1.8-4.5 2.3-1.9.6-3.9.8-6 .8-4.4-.1-7.9-1.3-10.5-3.7zM281.1 48.7c-2.2-1.1-3.9-2.7-5-4.8-1.2-2.1-1.8-4.5-1.8-7.3s.6-5.2 1.8-7.3c1.2-2.1 2.9-3.7 5-4.8 2.2-1.1 4.7-1.7 7.7-1.7 2.9 0 5.4.6 7.6 1.7s3.8 2.7 5 4.8c1.2 2.1 1.8 4.5 1.8 7.3s-.6 5.2-1.8 7.3c-1.2 2.1-2.8 3.7-5 4.8-2.2 1.1-4.7 1.7-7.6 1.7-3-.1-5.6-.6-7.7-1.7zm12.7-12.1c0-2.3-.4-4-1.3-5.1-.8-1.1-2.1-1.6-3.8-1.6-1.7 0-3 .5-3.9 1.6s-1.3 2.8-1.3 5.1.4 4 1.3 5.1 2.2 1.6 3.9 1.6c3.4 0 5.1-2.2 5.1-6.7zM306 40.3h9.8V50H306v-9.7zM345 25.7c1.5 1.9 2.3 4.7 2.3 8.5v15.7h-9.4V34.6c0-1.6-.3-2.8-.8-3.5-.6-.7-1.4-1.1-2.6-1.1-1.4 0-2.6.5-3.4 1.4-.9 1-1.3 2.2-1.3 3.8v14.7h-9.4V31.1c0-2.8-.1-5.4-.4-7.6h8.8l.5 3.9c1-1.5 2.2-2.6 3.7-3.4s3.2-1.2 5-1.2c3.2 0 5.5 1 7 2.9zM362.9 43h12.8v7H352v-6.6l11.8-12.9h-11.9v-6.9H375v6.2L362.9 43z"/></g><path class="house" d="M56.6 24L29.5.4c-.3-.2-.6-.4-1-.4h-.1-.1c-.4 0-.7.1-1 .4L.4 24c-.6.5-.5 1.1.3 1.4L6.3 27 14 56.8c.2.8 1 1.4 1.8 1.4h25c.8 0 1.6-.6 1.8-1.4L50.7 27l5.6-1.6c.8-.3.9-.9.3-1.4zM28.8 48.6c-2 0-3.6-1.6-3.6-3.6h7.2c0 2-1.6 3.6-3.6 3.6zm-.3-8.9c-4.6 0-8.3-3.7-8.3-8.3 0-4.6 3.7-8.3 8.3-8.3s8.3 3.7 8.3 8.3c-.1 4.6-3.8 8.3-8.3 8.3z"/></svg>